# xmcd
#
# Track frame offsets:
#	182
#	12920
#	22032
#	33685
#	43727
#	51782
#	63375
#	79382
#	86645
#	98300
#	111887
#	120715
#	132082
#	145562
#	161675
#	177207
#	188742
#	204557
#
# Disc length: 2822 seconds
#
# Revision: 1
# Processed by: cddbd v1.4PL0 Copyright (c) Steve Scherf et al.
# Submitted via: EasyCDDAExtractor 5.1.0
#
DISCID=f00b0412
DTITLE=compilation disc - Bouzouki My Love
DYEAR=1900
DGENRE=Country
TTITLE0=The Waitress
TTITLE1=My Coat Became Old
TTITLE2=Dark Eyes And Eyebrows
TTITLE3=The Nigger
TTITLE4=Magical Nights
TTITLE5=Your Beautiful Blue Eyes
TTITLE6=Which Pathway Should I Pass By
TTITLE7=Baxe Tsificki
TTITLE8=Deal Your Cards Fortune-Teller
TTITLE9=The Tramp
TTITLE10=Gril From Athens
TTITLE11=A Blue Eyed Girl
TTITLE12=Demetroula
TTITLE13=The Suitcase
TTITLE14=The Falcon's Son
TTITLE15=Girl Made By Angels
TTITLE16=Drop Ny Drop
TTITLE17=The Riandrops Are Falling
EXTD=
EXTT0=
EXTT1=
EXTT2=
EXTT3=
EXTT4=
EXTT5=
EXTT6=
EXTT7=
EXTT8=
EXTT9=
EXTT10=
EXTT11=
EXTT12=
EXTT13=
EXTT14=
EXTT15=
EXTT16=
EXTT17=
PLAYORDER=
